<svg width="80" height="40" xmlns="http://www.w3.org/2000/svg">
 <defs>
  <clipPath id="c">
   <path id="svg_1" d="m-0.199219,-20.199219l80.39844,0l0,80.39844l-80.39844,0l0,-80.39844zm0,0"/>
  </clipPath>
  <clipPath id="b">
   <path id="svg_2" d="m-0.199219,-20.199219l80.39844,0l0,80.39844l-80.39844,0l0,-80.39844zm0,0"/>
  </clipPath>
  <clipPath id="a">
   <path id="svg_3" d="m-0.199219,-20.199219l80.39844,0l0,80.39844l-80.39844,0l0,-80.39844zm0,0"/>
  </clipPath>
 </defs>
 <g>
  <title>background</title>
  <rect fill="none" id="canvas_background" height="42" width="82" y="-1" x="-1"/>
 </g>
 <g>
  <title>Layer 1</title>
  <g id="svg_4">
   <g id="svg_5" clip-rule="nonzero" clip-path="url(#c)">
    <path id="svg_6" stroke-miterlimit="10" stroke="#ffffff" stroke-width="6" fill="none" d="m23.25,20c0,-4.625 -3.75,-8.375 -8.375,-8.375c-4.625,0 -8.375,3.75 -8.375,8.375c0,4.625 3.75,8.375 8.375,8.375c4.625,0 8.375,-3.75 8.375,-8.375zm0,0"/>
   </g>
   <path id="svg_7" stroke-miterlimit="10" stroke="#ffffff" stroke-width="6" fill="none" d="m23.25,20l8.375,0"/>
   <g id="svg_8" clip-rule="nonzero" clip-path="url(#b)">
    <path id="svg_9" stroke-miterlimit="10" stroke="#ffffff" stroke-width="6" fill="none" d="m48.375,20c0,-4.625 -3.75,-8.375 -8.375,-8.375c-4.625,0 -8.375,3.75 -8.375,8.375c0,4.625 3.75,8.375 8.375,8.375c4.625,0 8.375,-3.75 8.375,-8.375zm0,0"/>
   </g>
   <path id="svg_10" stroke-miterlimit="10" stroke="#ffffff" stroke-width="6" fill="none" d="m56.75,20l-8.375,0"/>
   <g id="svg_11" clip-rule="nonzero" clip-path="url(#a)">
    <path id="svg_12" stroke-miterlimit="10" stroke="#ffffff" stroke-width="6" fill="none" d="m73.5,20c0,-4.625 -3.75,-8.375 -8.375,-8.375c-4.625,0 -8.375,3.75 -8.375,8.375c0,4.625 3.75,8.375 8.375,8.375c4.625,0 8.375,-3.75 8.375,-8.375zm0,0"/>
   </g>
  </g>
 </g>
</svg>